<svg width="52" height="52" viewBox="0 0 52 52" fill="none" xmlns="http://www.w3.org/2000/svg">
<rect width="52" height="52" rx="26" fill="#F4F4F5"/>
<path d="M26.0007 37.7813C27.3298 37.7813 28.4173 36.6938 28.4173 35.3646H23.584C23.584 36.0055 23.8386 36.6202 24.2918 37.0734C24.745 37.5266 25.3597 37.7813 26.0007 37.7813ZM33.2507 30.5313V24.4896C33.2507 20.78 31.269 17.6746 27.8132 16.8529V16.0313C27.8132 15.0283 27.0036 14.2188 26.0007 14.2188C24.9977 14.2188 24.1882 15.0283 24.1882 16.0313V16.8529C20.7202 17.6746 18.7507 20.7679 18.7507 24.4896V30.5313L16.334 32.9479V34.1563H35.6673V32.9479L33.2507 30.5313Z" fill="#71717A"/>
</svg>
