<svg width="311" height="311" viewBox="0 0 311 311" fill="none" xmlns="http://www.w3.org/2000/svg">
<path d="M114.176 65.7209C114.079 58.2525 112.886 49.459 121.861 46.7346C124.579 45.9094 130.416 46.2439 133.435 46.2541L150.153 46.26L167.975 46.235C172.971 46.2122 179.46 45.3442 183.565 48.565C185.285 49.9419 186.547 51.8091 187.182 53.919C187.817 56.0889 187.733 59.1866 187.742 61.4963L187.752 73.6999C187.748 75.4309 187.627 78.6157 187.824 80.1687C188.142 80.3519 188.462 80.5305 188.786 80.7045C189.275 81.342 189.091 95.7938 188.994 97.734C188.456 97.9884 188.307 98.038 187.856 98.4084C187.554 98.9633 187.673 99.4854 187.715 100.143C190.002 96.7536 192.669 94.9622 196.825 96.564C198.729 99.5961 200.346 106.842 201.027 110.448C202.401 111.818 203.494 113.976 204.603 115.648C206.033 117.806 208.853 120.788 209.444 123.244C211.055 129.943 212.688 136.515 215.187 142.964C216.662 146.768 219.096 150.377 219.626 154.505C220.082 158.797 219.377 163.463 219.353 167.791C218.984 174.474 219.419 181.148 219.561 187.83C219.624 190.917 219.26 193.812 219.621 196.923C219.881 199.148 220.434 201.33 221.266 203.41C223.67 209.371 228.511 214.532 231.903 219.884C240.473 233.397 250.228 245.808 260.129 258.382C263.136 262.178 266.117 265.995 269.073 269.83C269.74 270.708 272.113 273.214 271.773 274.149C270.947 274.283 269.357 271.985 268.78 271.276C266.624 268.587 264.486 265.884 262.369 263.164C254.623 253.304 246.811 243.42 239.429 233.282C236.511 229.132 233.832 224.839 230.96 220.652C227.843 216.104 224.422 211.784 221.673 206.991C219.831 203.779 218.964 200.613 218.359 196.993C217.167 201.655 216.997 206.668 219.222 211.055C219.913 212.414 221.07 213.932 221.503 215.342C219.053 212.992 217.359 209.34 216.894 205.981C216.226 201.155 218.115 196.367 218.291 191.566C218.51 185.569 217.946 179.572 217.994 173.539C218.038 170.348 218.142 167.159 218.311 163.972C218.454 161.228 218.763 157.029 218.367 154.402C217.781 150.533 215.154 146.368 213.752 142.574C211.883 137.516 210.591 132.951 209.248 127.768C207.96 128.022 207.189 127.839 206.102 127.156L206.158 127.003C207.023 126.929 208.238 127.185 209.198 127.29C208.788 125.391 208.525 123.953 207.696 122.179C206.925 122.652 205.96 123.363 205.063 123.293L205.107 123.061C205.79 122.398 206.589 122.127 207.468 121.732C206.457 119.995 205.078 118.438 203.921 116.784C202.773 115.142 201.765 113.427 200.699 111.729C200.097 111.63 198.538 111.442 198.003 111.017C196.09 109.492 193.847 104.001 193.783 101.53C193.751 100.332 195.37 97.6393 195.291 97.2865C194.773 97.0701 193.965 97.1091 193.431 97.2118C189.091 98.0942 187.852 102.333 187.463 106.141C187.08 109.874 186.88 113.199 187.316 116.943C187.566 119.205 188.058 121.434 188.781 123.592C189.246 124.992 191.637 129.204 191.645 129.755C191.723 134.712 193.047 139.606 194.006 144.359C195.329 145.187 196.816 145.657 198.014 146.589L198.012 146.759C196.453 146.604 195.496 145.997 194.131 145.287C194.12 147.51 193.41 154.048 191.44 155.306L191.291 155.131C191.173 154.007 192.108 151.5 192.416 150.08C191.519 150.424 188.889 151.863 188.265 151.707C188.91 150.512 191.417 149.595 192.649 149.168L192.795 147.454C190.922 146.205 189.502 144.751 187.726 143.362C187.865 150.553 187.773 157.987 187.727 165.19C188.049 164.226 189.669 159.19 190.427 158.955L190.547 159.205C190.029 162.107 188.438 164.499 187.931 168.042C186.933 175.032 189.853 183.976 184.474 189.459C181.05 192.951 176.112 192.579 171.57 192.566L156.273 192.569C156.14 193.35 156.711 192.026 156.273 192.569C151.456 192.55 145.736 192.548 140.92 192.582C140.92 192.278 140.922 192.705 140.92 192.582L123.459 192.553C123.046 193.26 123.416 192.626 123.459 192.553C119.12 191.977 116.55 189.327 114.801 185.484L112.663 185.327C111.606 186.005 110.846 186.428 109.553 186.428L109.487 186.245C109.965 185.683 110.732 185.438 111.453 185.066C109.658 184.655 106.573 183.939 105.121 182.793L105.122 182.565C106.816 181.941 113.081 185.443 117.792 183.747C119.343 183.189 120.615 182.125 121.28 180.6C121.832 179.335 122.181 177.107 121.624 175.792C120.367 172.828 115.631 171.273 112.825 170.198C110.379 169.26 107.265 168.197 104.737 169.386C103.224 170.098 102.176 171.445 101.615 172.997C100.784 175.3 100.921 178.008 101.949 180.224C103.947 184.533 108.945 186.848 112.683 189.424C115.481 191.353 118.436 193.458 121.012 195.669C122.607 197.04 124.68 200.688 126.496 201.36C128.015 203.486 131.791 206.991 133.636 209.008C140.705 216.737 147.434 224.792 156.664 230.067C158.062 230.866 159.828 231.917 161.153 232.849C164.789 235.406 168.191 238.337 171.918 240.787C176.532 243.755 179.194 247.568 181.966 252.168C183.425 254.604 184.793 257.093 186.067 259.63C191.05 269.381 195.575 279.567 200.436 289.4C200.626 289.786 200.846 290.46 200.743 290.879L200.336 290.952C199.036 290.301 187.056 263.806 185.135 260.44C183.267 257.166 180.986 252.479 178.438 248.902C175.819 244.115 171.266 242.389 167.529 239.183C161.157 233.446 153.013 230.114 146.749 224.335C137.267 215.586 128.957 205.395 119.864 196.255C115.12 191.487 105.021 187.403 101.528 181.903C97.4971 175.557 100.777 165.7 110.327 168.201C106.576 164.976 100.353 161.863 98.9993 156.894C97.5504 151.577 101.306 145.132 106.661 143.706C103.755 141.996 99.2608 135.295 99.4556 131.735C99.6119 128.879 100.905 126.274 102.923 124.283C106.019 121.228 110.107 121.272 114.14 121.316L114.155 118.433C109.721 116.388 102.916 112.845 100.256 108.646C99.14 106.914 98.7925 104.796 99.2968 102.798C100.96 96.1003 107.902 97.3091 112.804 98.6726C112.859 96.3901 112.509 93.4578 113.098 91.3227C113.262 90.7239 114.68 90.6437 114.142 88.7457C113.761 88.5243 112.914 88.0979 112.883 87.5857C112.69 84.4082 112.77 80.8589 112.895 77.6628C112.984 77.5347 113.072 77.4065 113.16 77.2783C113.566 77.1101 113.666 77.0823 114.04 76.8329C114.269 76.0995 114.161 73.6936 114.154 72.8329C113.609 72.6267 113.388 72.5908 112.978 72.1679C112.707 71.1543 112.725 67.4634 112.926 66.3573C113.263 65.8992 113.617 65.8776 114.176 65.7209Z" fill="#408CE4"/>
<path d="M173.963 50.8025C177.059 50.6745 180.121 50.4124 182.341 53.1962C182.928 53.9321 183.161 54.7739 183.214 55.7031C183.457 59.9536 183.305 64.2282 183.287 68.486L183.27 86.0695L183.279 145.024L183.246 171.629C183.243 175.246 183.425 179.546 183.105 183.13C182.86 185.865 179.223 187.976 176.537 188.03C172.81 188.106 168.93 188.078 165.122 188.073L143.033 188.049L132.129 188.093C129.498 188.112 126.461 188.283 123.906 187.825C121.754 187.44 120.584 186.178 119.451 184.425L120.83 183.267C122.333 181.517 123.391 179.388 123.057 177.013C122.664 174.224 120.717 172.78 118.609 171.255L118.548 169.612C121.626 167.969 123.698 165.465 123.641 161.79C123.582 157.99 121.035 155.588 118.506 153.133C118.65 151.454 118.521 147.302 118.522 145.469L118.538 129.123L118.556 77.1105C118.571 72.8798 118.559 68.6493 118.519 64.4187C118.481 61.6787 118.313 58.7198 118.549 56.0684C118.815 53.0742 121.63 50.7224 124.602 50.853C125.473 50.8913 131.769 50.5303 132.183 51.052C133.167 52.294 133.197 54.1128 134.833 55.464C135.336 55.8796 135.943 56.1504 136.589 56.2471C137.639 56.3964 139.661 56.3472 140.792 56.3487L147.621 56.3517L157.564 56.3422C159.722 56.3362 161.834 56.3415 163.877 56.2088C167.17 55.9947 167.549 53.5908 169.145 51.3713C169.667 50.6461 172.821 50.8075 173.963 50.8025Z" fill="#FEFEFD"/>
<path d="M144.185 116.082L145.501 107.787H144.095C143.437 107.787 142.59 107.419 142.341 106.741C142.261 106.511 142.071 105.724 143.158 104.956C143.547 104.687 143.796 104.388 143.846 104.158C143.896 103.919 143.836 103.71 143.667 103.55C143.427 103.321 142.959 103.191 142.36 103.191C141.354 103.191 140.646 103.77 140.576 104.188C140.526 104.497 140.765 104.747 140.975 104.906C141.603 105.375 141.752 106.053 141.364 106.691C140.965 107.349 140.097 107.777 139.17 107.787H137.735C137.615 108.595 135.661 120.977 135.511 121.955H143.268C143.338 121.526 143.696 119.183 144.185 116.082Z" fill="#183E4F"/>
<path d="M135.093 124.826H138.273C139.629 124.826 139.958 125.514 139.859 126.142C139.779 126.65 139.43 127.029 138.832 127.278C139.589 127.568 139.889 128.016 139.779 128.724C139.639 129.611 138.872 130.269 137.865 130.269H134.246L135.093 124.826ZM137.197 127.079C137.815 127.079 138.104 126.75 138.164 126.361C138.224 125.942 138.034 125.653 137.416 125.653H136.868L136.648 127.079H137.197ZM136.858 129.422C137.496 129.422 137.865 129.163 137.954 128.634C138.024 128.176 137.765 127.906 137.147 127.906H136.529L136.289 129.432H136.858V129.422Z" fill="#183E4F"/>
<path d="M144.235 130.309C143.408 130.369 143.009 130.279 142.81 129.92C142.371 130.19 141.882 130.329 141.364 130.329C140.427 130.329 140.098 129.841 140.188 129.302C140.227 129.043 140.377 128.794 140.616 128.584C141.135 128.136 142.411 128.076 142.909 127.737C142.949 127.358 142.8 127.219 142.331 127.219C141.862 127.219 141.324 127.398 140.536 127.936L140.726 126.7C141.404 126.212 142.062 125.982 142.82 125.982C143.577 125.982 144.644 126.381 144.485 127.438L144.295 128.634C144.225 129.053 144.245 129.183 144.714 129.193L144.235 130.309ZM142.8 128.425C142.361 128.704 141.543 128.654 141.454 129.232C141.414 129.502 141.583 129.701 141.852 129.701C142.122 129.701 142.431 129.591 142.69 129.412C142.67 129.312 142.68 129.213 142.71 129.023L142.8 128.425Z" fill="#183E4F"/>
<path d="M145.78 126.052H147.435L147.345 126.6C147.874 126.152 148.273 125.982 148.791 125.982C149.718 125.982 150.147 126.551 149.997 127.478L149.569 130.259H147.914L148.273 127.956C148.342 127.538 148.213 127.338 147.894 127.338C147.575 127.338 147.395 127.478 147.166 127.787L146.787 130.249H145.132L145.78 126.052Z" fill="#183E4F"/>
<path d="M151.293 124.826H152.948L152.53 127.498L154.115 126.052H156.159L154.125 127.847L155.76 130.259H153.676L152.42 128.305H152.4L152.101 130.249H150.446L151.293 124.826Z" fill="#183E4F"/>
<path d="M157.145 124.826H159.05L158.212 130.259H156.308L157.145 124.826Z" fill="#183E4F"/>
<path d="M159.977 124.826H162.699C164.802 124.826 165.411 126.351 165.211 127.617C165.022 128.854 164.045 130.259 162.2 130.259H159.13L159.977 124.826ZM161.742 128.963C162.669 128.963 163.177 128.505 163.327 127.538C163.437 126.82 163.217 126.112 162.19 126.112H161.682L161.243 128.963H161.742Z" fill="#183E4F"/>
<path d="M154.613 100.539H146.687L145.63 107.249H146.976C147.714 107.249 148.411 106.91 148.711 106.422C148.81 106.262 148.85 106.122 148.85 105.993C148.85 105.714 148.661 105.504 148.471 105.365C147.953 104.976 147.843 104.567 147.843 104.278C147.843 103.989 147.843 104.168 147.853 104.119C147.963 103.411 148.92 102.643 150.186 102.643C151.452 102.643 151.522 102.822 151.871 103.151C152.18 103.441 152.3 103.849 152.21 104.278C152.1 104.787 151.592 105.205 151.303 105.415C150.535 105.953 150.635 106.422 150.685 106.561C150.844 106.98 151.452 107.249 151.921 107.249H153.975C156.766 107.279 158.262 108.565 157.793 111.556C157.354 114.338 155.221 115.534 152.679 115.554L151.672 121.974H153.157C159.428 121.974 164.553 117.947 165.56 111.586C166.806 103.69 161.791 100.539 154.613 100.539Z" fill="#183E4F"/>
<path d="M139.82 185.297C140.951 185.255 144.78 185.203 145.818 185.294C148.086 185.497 160.99 184.913 161.944 185.59L161.98 186.079C161.043 186.195 159.22 186.131 158.207 186.129L151.75 186.141L144.069 186.16C143.008 186.161 141.013 186.222 140.02 186.1C139.699 185.731 139.828 185.944 139.82 185.297Z" fill="#408CE4"/>
<path d="M124.639 47.4354C127.469 47.3079 130.954 47.4005 133.807 47.4075L149.372 47.4277L165.091 47.4058C167.627 47.3897 177.642 47.1451 179.614 47.7649C182.062 48.54 184.103 50.2552 185.288 52.5337C186.299 54.4773 186.398 57.0937 186.437 59.2665C186.53 64.4132 186.545 69.5878 186.572 74.7355V93.1237C186.562 96.5077 186.586 99.9226 186.51 103.304C186.15 106.563 185.927 109.594 185.827 112.876C185.748 115.482 186.443 117.894 186.472 120.304C186.625 133.038 186.572 146.147 186.556 158.839L186.502 172.421C186.493 175.595 186.849 182.026 185.947 184.797C185.151 187.264 183.38 189.298 181.048 190.427C178.134 191.831 171.209 191.426 167.797 191.424L151.223 191.414L135.136 191.417C133.976 191.423 132.808 191.438 131.648 191.435C125.111 191.421 119.39 192.419 116.139 185.414C116.986 185.245 117.767 185.013 118.595 184.776C120.734 188.223 122.928 188.92 126.789 188.914C138.292 188.895 149.796 188.91 161.299 188.911L171.748 188.907C175.417 188.904 179.23 189.421 182.035 186.57C182.916 185.68 183.538 184.568 183.837 183.353C184.261 181.64 184.061 172.383 184.055 170.046L184.076 94.9988L184.083 70.7844C184.106 66.2605 184.291 61.6782 184.127 57.1672C184.073 55.6655 183.965 54.0215 183.039 52.8176C181.947 51.3987 180.585 50.2423 178.647 50.0766C175.706 49.8496 172.489 49.8463 169.558 50.1491C168.054 50.3046 167.402 53.9243 166 54.5807C163.477 55.7626 159.626 55.4608 156.859 55.4605L146.993 55.4591C143.698 55.4663 140.003 55.7193 136.752 55.3951C134.051 55.1248 133.605 51.6274 132.923 50.4646C131.478 49.6446 123.928 49.8574 122.787 50.2309C116.57 52.2678 117.695 58.3977 117.729 63.3755L117.719 74.9732L117.712 112.815C117.711 118.706 117.943 126.644 117.635 132.356C117.085 130.343 115.403 127.571 115.357 126.607C115.221 123.783 115.3 120.311 115.288 117.414L115.294 95.9223L115.296 69.8312C115.305 65.2711 115.175 60.5176 115.509 55.9691C115.872 51.0219 119.9 47.9258 124.639 47.4354Z" fill="#FEFEFD"/>
<path d="M146.394 51.5227C147.846 51.4728 154.516 51.1914 155.308 51.8937C155.381 52.4178 155.434 52.1824 155.144 52.6234C153.83 52.6011 146.978 52.8276 146.324 52.4205C146.15 51.8905 146.185 52.1751 146.394 51.5227Z" fill="#408CE4"/>
<path d="M158.443 50.9621C158.838 50.7584 159.312 50.7842 159.684 51.0293C160.054 51.2744 160.264 51.7008 160.231 52.1441C160.199 52.5874 159.928 52.9786 159.526 53.1667C158.92 53.4502 158.199 53.1963 157.903 52.5956C157.608 51.9948 157.848 51.2685 158.443 50.9621Z" fill="#408CE4"/>
<path d="M107.411 144.747C110.075 144.626 111.81 145.068 114.174 146.248L114.16 149.421C113.106 148.459 112.458 147.726 111.103 147.304L110.95 147.422C111.574 148.991 118.368 154.39 120.018 156.355C123.293 160.253 123.589 164.248 119.563 167.648C114.19 171.285 111.596 167.235 107.595 164.601C100.287 159.788 96.598 154.235 103.48 146.68C104.518 145.54 105.876 145.054 107.411 144.747Z" fill="#FEFEFD"/>
<path d="M109.733 122.602C110.754 122.439 113.07 122.5 114.189 122.522L114.139 125.929C113.622 125.279 113.049 124.347 112.278 124.212L112.103 124.457C112.231 124.87 113.635 126.938 113.974 127.397C117.552 132.252 118.77 140.377 111.687 142.973C109.008 143.615 106.844 142.849 105.091 140.697C103.572 138.658 100.941 135.51 100.762 132.818C100.372 126.968 104.455 123.276 109.733 122.602Z" fill="#FEFEFD"/>
<path d="M105.705 98.7458C107.846 98.5636 110.691 99.2977 112.811 99.7587C112.766 101.36 112.622 101.762 114.029 102.761C114.202 104.512 114.123 106.711 114.113 108.501C114.096 111.381 114.097 114.259 114.115 117.138L110.801 115.483C109.37 114.725 107.983 113.885 106.648 112.966C102.85 110.353 97.9362 106.221 101.48 100.965C102.419 99.5709 104.097 98.9923 105.705 98.7458Z" fill="#FEFEFD"/>
<path d="M187.697 124.484C188.5 125.768 189.531 128.108 190.568 129.821C190.567 133.845 190.99 136.368 191.895 140.286C192.246 141.813 192.872 144.632 192.937 146.12C191.829 145.465 189.107 142.918 187.771 141.89L187.697 124.484Z" fill="#FEFEFD"/>
<path d="M196.067 97.8786C197.182 99.0204 199.818 108.848 199.923 110.597C199.543 110.756 199.119 110.572 198.688 110.462C196.825 109.153 195.756 105.713 194.952 103.613C194.11 101.408 195.024 99.8401 196.067 97.8786Z" fill="#FEFEFD"/>
<path d="M117.6 138.599C117.762 139.405 117.711 142.306 117.709 143.285L117.683 152.515L116.585 151.451L115.282 150.178C115.271 147.554 115.275 144.929 115.294 142.305C116.543 140.809 116.889 140.384 117.6 138.599Z" fill="#FEFEFD"/>
<path d="M187.706 80.9824L187.926 81.0822C188.454 81.6838 188.251 95.5563 188.167 97.3021L187.891 97.3034L187.71 97.1138C187.548 92.3072 187.579 85.8047 187.706 80.9824Z" fill="#FEFEFD"/>
<path d="M113.893 77.6883C114.03 77.8129 114.054 77.8894 114.156 78.0529C114.26 79.3475 114.367 87.0451 113.98 87.8651C113.854 87.7287 113.649 87.5219 113.654 87.3195C113.688 85.7094 113.234 78.6901 113.893 77.6883Z" fill="#FEFEFD"/>
<path d="M113.775 91.6158C114.078 91.7389 113.947 91.6373 114.142 91.9494C114.259 93.2837 114.325 100.803 114.033 101.789C113.922 101.697 113.767 101.596 113.749 101.473C113.51 99.8301 113.454 92.8705 113.775 91.6158Z" fill="#FEFEFD"/>
<path d="M113.946 66.4762C114.41 66.9008 114.263 71.2497 113.995 71.9503C113.342 71.2486 113.332 67.1564 113.946 66.4762Z" fill="#FEFEFD"/>
<path d="M114.034 143.222C114.232 143.605 114.265 144.173 114.053 144.559C113.508 144.768 113.652 144.685 112.929 144.417C112.568 144.3 112.572 144.303 112.256 144.093C112.447 143.77 113.581 143.41 114.034 143.222Z" fill="#FEFEFD"/>
<path d="M198.604 127.373L198.875 127.515L198.854 127.803C197.541 129.19 194.895 130.123 193.031 130.483C192.772 130.402 192.911 130.471 192.649 130.223C192.592 130.302 197.746 127.918 198.604 127.373Z" fill="#408CE4"/>
<path d="M194.75 127.637L195.078 127.582L195.181 127.76C194.631 128.551 192.68 128.446 191.811 128.429C191.439 128.337 191.465 128.338 191.167 128.088L191.254 127.892C192 127.702 193.866 127.688 194.75 127.637Z" fill="#408CE4"/>
</svg>
