<svg width="96" height="91" viewBox="0 0 96 91" fill="none" xmlns="http://www.w3.org/2000/svg">
<path d="M30.2873 47.3611L34.2973 22.0856H30.0139C28.0089 22.0856 25.4266 20.9616 24.6671 18.8958C24.4241 18.1971 23.8469 15.7972 27.1582 13.458C28.343 12.6377 29.1025 11.7264 29.2544 11.0276C29.4063 10.2985 29.224 9.66057 28.7076 9.1745C27.9785 8.47578 26.5507 8.08086 24.7279 8.08086C21.6596 8.08086 19.5027 9.84285 19.29 11.1188C19.1381 12.0605 19.8672 12.82 20.5052 13.3061C22.4191 14.7339 22.8748 16.7997 21.69 18.7439C20.4748 20.749 17.8318 22.0553 15.0066 22.0856H10.632C10.2674 24.5464 4.31311 62.2773 3.85742 65.2544H27.4924C27.7051 63.9481 28.7987 56.809 30.2873 47.3611Z" fill="#183E4F"/>
<path d="M2.58223 74.0036H12.2732C16.4047 74.0036 17.4073 76.0998 17.1035 78.0137C16.8604 79.563 15.7972 80.7174 13.9744 81.4769C16.2832 82.3579 17.1946 83.7249 16.8604 85.8819C16.4351 88.5856 14.0959 90.5906 11.0276 90.5906H0L2.58223 74.0036ZM8.99223 80.8693C10.8757 80.8693 11.7567 79.8668 11.939 78.682C12.1213 77.4061 11.5441 76.5251 9.66057 76.5251H7.98972L7.32137 80.8693H8.99223ZM7.95934 88.0084C9.9036 88.0084 11.0276 87.2185 11.301 85.6084C11.5137 84.211 10.7238 83.3908 8.84033 83.3908H6.95683L6.22773 88.0388H7.95934V88.0084Z" fill="#183E4F"/>
<path d="M30.4399 90.7122C27.9185 90.8944 26.7033 90.621 26.0957 89.5274C24.759 90.3476 23.2705 90.7729 21.6907 90.7729C18.8351 90.7729 17.8326 89.2843 18.106 87.6439C18.2275 86.854 18.6832 86.0945 19.4123 85.4566C20.992 84.0895 24.8806 83.9072 26.3995 82.8743C26.521 81.7199 26.0653 81.2946 24.6375 81.2946C23.2097 81.2946 21.5692 81.8415 19.1693 83.4819L19.7465 79.7149C21.8123 78.2263 23.8173 77.5276 26.1261 77.5276C28.4349 77.5276 31.6855 78.7428 31.1994 81.963L30.6222 85.6085C30.4096 86.8844 30.4703 87.2793 31.8981 87.3097L30.4399 90.7122ZM26.0653 84.9705C24.7287 85.8211 22.2376 85.6692 21.9642 87.4312C21.8426 88.2515 22.3591 88.859 23.1793 88.859C23.9996 88.859 24.9413 88.5249 25.7312 87.978C25.6704 87.6743 25.7008 87.3705 25.7919 86.7933L26.0653 84.9705Z" fill="#183E4F"/>
<path d="M35.1487 77.7403H40.1917L39.9182 79.4111C41.5283 78.0441 42.7435 77.5276 44.3232 77.5276C47.1485 77.5276 48.4548 79.2592 47.9991 82.0845L46.6928 90.5603H41.6499L42.7435 83.5427C42.9562 82.2668 42.5612 81.6592 41.5891 81.6592C40.617 81.6592 40.0701 82.0845 39.3714 83.0262L38.217 90.5299H33.1741L35.1487 77.7403Z" fill="#183E4F"/>
<path d="M51.948 74.0036H56.9909L55.715 82.1452L60.5452 77.7402H66.773L60.5756 83.2085L65.5578 90.5602H59.2086L55.3808 84.6059H55.32L54.4087 90.5299H49.3657L51.948 74.0036Z" fill="#183E4F"/>
<path d="M69.7811 74.0036H75.5835L73.0317 90.5602H67.2292L69.7811 74.0036Z" fill="#183E4F"/>
<path d="M78.4086 74.0036H86.7022C93.1122 74.0036 94.9653 78.6516 94.3577 82.5098C93.7805 86.2768 90.8033 90.5602 85.1832 90.5602H75.8264L78.4086 74.0036ZM83.7857 86.611C86.611 86.611 88.1603 85.2135 88.616 82.2667C88.9502 80.0794 88.2819 77.9225 85.1528 77.9225H83.6035L82.2668 86.611H83.7857Z" fill="#183E4F"/>
<path d="M62.0638 0H37.9123L34.6921 20.4452H38.7933C41.0414 20.4452 43.1679 19.4123 44.0793 17.9237C44.3831 17.4376 44.5046 17.0123 44.5046 16.6174C44.5046 15.7668 43.9274 15.1288 43.3502 14.7035C41.7705 13.5187 41.4363 12.2732 41.4363 11.3922C41.4363 10.5112 41.4363 11.058 41.4667 10.9061C41.8009 8.7492 44.7173 6.41 48.5754 6.41C52.4336 6.41 52.6462 6.95683 53.7095 7.95934C54.6512 8.84033 55.0158 10.0859 54.7424 11.3922C54.4082 12.9415 52.8589 14.2174 51.9779 14.8554C49.6387 16.4959 49.9425 17.9237 50.0944 18.349C50.5804 19.6249 52.4336 20.4452 53.8614 20.4452H60.1195C68.6257 20.5363 73.1825 24.4552 71.7547 33.569C70.418 42.0448 63.9169 45.6903 56.1702 45.751L53.1019 65.3152H57.6284C76.7369 65.3152 92.3518 53.042 95.4201 33.6601C99.2175 9.59982 83.9368 0 62.0638 0Z" fill="#183E4F"/>
</svg>
